<svg width="834" height="221" viewBox="0 0 834 221" fill="none" xmlns="http://www.w3.org/2000/svg">
<rect width="834" height="221" fill="white"/>
<rect x="3" y="3" width="828" height="215" fill="black" stroke="url(#paint0_linear)" stroke-width="6"/>
<path d="M198.927 128.093L188.687 113.693C187.535 113.821 186.34 113.885 185.103 113.885H173.071V128.093H168.335V83.293H185.103C190.82 83.293 195.3 84.6584 198.543 87.389C201.786 90.1197 203.407 93.8744 203.407 98.653C203.407 102.152 202.511 105.117 200.719 107.549C198.97 109.938 196.452 111.666 193.167 112.733L204.111 128.093H198.927ZM184.975 109.853C189.412 109.853 192.804 108.872 195.151 106.909C197.498 104.946 198.671 102.194 198.671 98.653C198.671 95.0264 197.498 92.253 195.151 90.333C192.804 88.3704 189.412 87.389 184.975 87.389H173.071V109.853H184.975ZM223.808 94.173C228.203 94.173 231.574 95.2824 233.92 97.501C236.267 99.677 237.44 102.92 237.44 107.229V128.093H233.088V122.845C232.064 124.594 230.55 125.96 228.544 126.941C226.582 127.922 224.235 128.413 221.504 128.413C217.75 128.413 214.763 127.517 212.544 125.725C210.326 123.933 209.216 121.565 209.216 118.621C209.216 115.762 210.24 113.458 212.288 111.709C214.379 109.96 217.686 109.085 222.208 109.085H232.896V107.037C232.896 104.136 232.086 101.938 230.464 100.445C228.843 98.909 226.475 98.141 223.36 98.141C221.227 98.141 219.179 98.5037 217.216 99.229C215.254 99.9117 213.568 100.872 212.16 102.109L210.112 98.717C211.819 97.2664 213.867 96.157 216.256 95.389C218.646 94.5784 221.163 94.173 223.808 94.173ZM222.208 124.829C224.768 124.829 226.966 124.253 228.8 123.101C230.635 121.906 232 120.2 232.896 117.981V112.477H222.336C216.576 112.477 213.696 114.482 213.696 118.493C213.696 120.456 214.443 122.013 215.936 123.165C217.43 124.274 219.52 124.829 222.208 124.829ZM248.502 94.429H253.046V128.093H248.502V94.429ZM250.806 87.069C249.868 87.069 249.078 86.749 248.438 86.109C247.798 85.469 247.478 84.701 247.478 83.805C247.478 82.9517 247.798 82.205 248.438 81.565C249.078 80.925 249.868 80.605 250.806 80.605C251.745 80.605 252.534 80.925 253.174 81.565C253.814 82.1624 254.134 82.8877 254.134 83.741C254.134 84.6797 253.814 85.469 253.174 86.109C252.534 86.749 251.745 87.069 250.806 87.069ZM281.562 94.173C285.786 94.173 289.135 95.4104 291.61 97.885C294.127 100.317 295.386 103.88 295.386 108.573V128.093H290.842V109.021C290.842 105.522 289.967 102.856 288.218 101.021C286.469 99.1864 283.973 98.269 280.73 98.269C277.103 98.269 274.223 99.357 272.09 101.533C269.999 103.666 268.954 106.632 268.954 110.429V128.093H264.41V94.429H268.762V100.637C269.999 98.589 271.706 97.0104 273.882 95.901C276.101 94.749 278.661 94.173 281.562 94.173ZM323.786 94.173C326.944 94.173 329.802 94.8984 332.362 96.349C334.922 97.757 336.928 99.7624 338.378 102.365C339.829 104.968 340.554 107.933 340.554 111.261C340.554 114.589 339.829 117.554 338.378 120.157C336.928 122.76 334.922 124.786 332.362 126.237C329.802 127.688 326.944 128.413 323.786 128.413C320.97 128.413 318.432 127.816 316.17 126.621C313.952 125.426 312.16 123.698 310.794 121.437V128.093H306.442V80.605H310.986V100.829C312.394 98.653 314.186 97.0104 316.362 95.901C318.581 94.749 321.056 94.173 323.786 94.173ZM323.466 124.381C325.813 124.381 327.946 123.848 329.866 122.781C331.786 121.672 333.28 120.114 334.346 118.109C335.456 116.104 336.01 113.821 336.01 111.261C336.01 108.701 335.456 106.418 334.346 104.413C333.28 102.408 331.786 100.872 329.866 99.805C327.946 98.6957 325.813 98.141 323.466 98.141C321.077 98.141 318.922 98.6957 317.002 99.805C315.125 100.872 313.632 102.408 312.522 104.413C311.456 106.418 310.922 108.701 310.922 111.261C310.922 113.821 311.456 116.104 312.522 118.109C313.632 120.114 315.125 121.672 317.002 122.781C318.922 123.848 321.077 124.381 323.466 124.381ZM362.297 128.413C359.055 128.413 356.132 127.688 353.529 126.237C350.927 124.744 348.879 122.696 347.385 120.093C345.892 117.49 345.145 114.546 345.145 111.261C345.145 107.976 345.892 105.032 347.385 102.429C348.879 99.8264 350.927 97.7997 353.529 96.349C356.132 94.8984 359.055 94.173 362.297 94.173C365.54 94.173 368.463 94.8984 371.065 96.349C373.668 97.7997 375.695 99.8264 377.145 102.429C378.639 105.032 379.385 107.976 379.385 111.261C379.385 114.546 378.639 117.49 377.145 120.093C375.695 122.696 373.668 124.744 371.065 126.237C368.463 127.688 365.54 128.413 362.297 128.413ZM362.297 124.381C364.687 124.381 366.82 123.848 368.697 122.781C370.617 121.672 372.111 120.114 373.177 118.109C374.244 116.104 374.777 113.821 374.777 111.261C374.777 108.701 374.244 106.418 373.177 104.413C372.111 102.408 370.617 100.872 368.697 99.805C366.82 98.6957 364.687 98.141 362.297 98.141C359.908 98.141 357.753 98.6957 355.833 99.805C353.956 100.872 352.463 102.408 351.353 104.413C350.287 106.418 349.753 108.701 349.753 111.261C349.753 113.821 350.287 116.104 351.353 118.109C352.463 120.114 353.956 121.672 355.833 122.781C357.753 123.848 359.908 124.381 362.297 124.381ZM435.853 94.429L423.117 128.093H418.829L408.205 100.509L397.581 128.093H393.293L380.621 94.429H384.973L395.533 123.037L406.349 94.429H410.253L421.005 123.037L431.693 94.429H435.853ZM468.021 84.125C466.058 84.125 464.565 84.6584 463.541 85.725C462.56 86.7917 462.069 88.3704 462.069 90.461V94.429H472.437V98.269H462.197V128.093H457.653V98.269H451.637V94.429H457.653V90.269C457.653 87.197 458.528 84.765 460.277 82.973C462.069 81.181 464.586 80.285 467.829 80.285C469.109 80.285 470.346 80.477 471.541 80.861C472.736 81.2024 473.738 81.7144 474.549 82.397L473.013 85.789C471.69 84.6797 470.026 84.125 468.021 84.125ZM478.581 80.605H483.125V128.093H478.581V80.605ZM508.302 128.413C505.06 128.413 502.137 127.688 499.534 126.237C496.932 124.744 494.884 122.696 493.39 120.093C491.897 117.49 491.15 114.546 491.15 111.261C491.15 107.976 491.897 105.032 493.39 102.429C494.884 99.8264 496.932 97.7997 499.534 96.349C502.137 94.8984 505.06 94.173 508.302 94.173C511.545 94.173 514.468 94.8984 517.07 96.349C519.673 97.7997 521.7 99.8264 523.15 102.429C524.644 105.032 525.39 107.976 525.39 111.261C525.39 114.546 524.644 117.49 523.15 120.093C521.7 122.696 519.673 124.744 517.07 126.237C514.468 127.688 511.545 128.413 508.302 128.413ZM508.302 124.381C510.692 124.381 512.825 123.848 514.702 122.781C516.622 121.672 518.116 120.114 519.182 118.109C520.249 116.104 520.782 113.821 520.782 111.261C520.782 108.701 520.249 106.418 519.182 104.413C518.116 102.408 516.622 100.872 514.702 99.805C512.825 98.6957 510.692 98.141 508.302 98.141C505.913 98.141 503.758 98.6957 501.838 99.805C499.961 100.872 498.468 102.408 497.358 104.413C496.292 106.418 495.758 108.701 495.758 111.261C495.758 113.821 496.292 116.104 497.358 118.109C498.468 120.114 499.961 121.672 501.838 122.781C503.758 123.848 505.913 124.381 508.302 124.381ZM581.858 94.429L569.122 128.093H564.834L554.21 100.509L543.586 128.093H539.298L526.626 94.429H530.978L541.538 123.037L552.354 94.429H556.258L567.01 123.037L577.698 94.429H581.858ZM615.794 112.669H587.634C587.89 116.168 589.234 119.005 591.666 121.181C594.098 123.314 597.17 124.381 600.882 124.381C602.973 124.381 604.893 124.018 606.642 123.293C608.392 122.525 609.906 121.416 611.186 119.965L613.746 122.909C612.253 124.701 610.376 126.066 608.114 127.005C605.896 127.944 603.442 128.413 600.754 128.413C597.298 128.413 594.226 127.688 591.538 126.237C588.893 124.744 586.824 122.696 585.33 120.093C583.837 117.49 583.09 114.546 583.09 111.261C583.09 107.976 583.794 105.032 585.202 102.429C586.653 99.8264 588.616 97.7997 591.09 96.349C593.608 94.8984 596.424 94.173 599.538 94.173C602.653 94.173 605.448 94.8984 607.922 96.349C610.397 97.7997 612.338 99.8264 613.746 102.429C615.154 104.989 615.858 107.933 615.858 111.261L615.794 112.669ZM599.538 98.077C596.296 98.077 593.565 99.1224 591.346 101.213C589.17 103.261 587.933 105.949 587.634 109.277H611.506C611.208 105.949 609.949 103.261 607.73 101.213C605.554 99.1224 602.824 98.077 599.538 98.077ZM628.179 101.021C629.246 98.7597 630.825 97.053 632.915 95.901C635.049 94.749 637.673 94.173 640.787 94.173V98.589L639.699 98.525C636.158 98.525 633.385 99.613 631.379 101.789C629.374 103.965 628.371 107.016 628.371 110.941V128.093H623.827V94.429H628.179V101.021ZM657.009 128.413C654.278 128.413 651.654 128.029 649.137 127.261C646.662 126.45 644.721 125.448 643.313 124.253L645.361 120.669C646.769 121.778 648.539 122.696 650.673 123.421C652.806 124.104 655.025 124.445 657.329 124.445C660.401 124.445 662.662 123.976 664.113 123.037C665.606 122.056 666.353 120.69 666.353 118.941C666.353 117.704 665.947 116.744 665.137 116.061C664.326 115.336 663.302 114.802 662.065 114.461C660.827 114.077 659.185 113.714 657.137 113.373C654.406 112.861 652.209 112.349 650.545 111.837C648.881 111.282 647.451 110.365 646.257 109.085C645.105 107.805 644.529 106.034 644.529 103.773C644.529 100.957 645.702 98.653 648.049 96.861C650.395 95.069 653.659 94.173 657.841 94.173C660.017 94.173 662.193 94.4717 664.369 95.069C666.545 95.6237 668.337 96.3704 669.745 97.309L667.761 100.957C664.987 99.037 661.681 98.077 657.841 98.077C654.939 98.077 652.742 98.589 651.249 99.613C649.798 100.637 649.073 101.981 649.073 103.645C649.073 104.925 649.478 105.949 650.289 106.717C651.142 107.485 652.187 108.061 653.425 108.445C654.662 108.786 656.369 109.149 658.545 109.533C661.233 110.045 663.387 110.557 665.009 111.069C666.63 111.581 668.017 112.456 669.169 113.693C670.321 114.93 670.897 116.637 670.897 118.813C670.897 121.757 669.659 124.104 667.185 125.853C664.753 127.56 661.361 128.413 657.009 128.413Z" fill="url(#paint1_linear)"/>
<defs>
<linearGradient id="paint0_linear" x1="-57.2057" y1="-39.1773" x2="790.585" y2="490.358" gradientUnits="userSpaceOnUse">
<stop stop-color="#BFF098"/>
<stop offset="1" stop-color="#6FD6FF"/>
</linearGradient>
<linearGradient id="paint1_linear" x1="163.153" y1="47.5196" x2="338.389" y2="295.943" gradientUnits="userSpaceOnUse">
<stop stop-color="#BFF098"/>
<stop offset="1" stop-color="#6FD6FF"/>
</linearGradient>
</defs>
</svg>
